<svg xmlns="http://www.w3.org/2000/svg" viewBox="0 0 146.24 238.33"><defs><style>.cls-1{fill:#231f20;}</style></defs><title>Asset 3</title><g id="Layer_2" data-name="Layer 2"><g id="définitif"><path class="cls-1" d="M137.15,21.83l9.07,37.09V197.69H0V58.92L9.08,21.83H53a15.07,15.07,0,0,1-1-5.54C52,12.56,54.51,0,73.13,0S94.29,12.56,94.29,16.29a15,15,0,0,1-1,5.54ZM10.46,58.92V187.24H60.59V159.34c0-6.86,5-12.69,12.52-12.69s12.52,5.83,12.52,12.69v27.89h50.13V58.92Zm9.06,87.73v31.54H31V146.65Zm20.55,0,0,31.54H51.53V146.65Zm75.18,0v31.54h11.45V146.65Zm-20.55,0v31.54h11.48l0-31.54ZM51.53,120.34h-32v13.11h32Zm0-26.19h-32v13.11h32Zm0-26.19h-32V81.06h32Zm43.15,65.49h32V120.34h-32Zm0-26.19h32V94.14h-32Zm0-26.19h32V68h-32Zm-34.1,52.38H85.64V120.34H60.58Zm0-26.19H85.64V94.14H60.58Zm0-26.19H85.64V68H60.58ZM73.15,9.13c-6.81,0-11.41,3.32-11.41,7.49a7.73,7.73,0,0,0,1.66,5.22H82.86a7.42,7.42,0,0,0,1.71-5.15C84.58,12.52,79.92,9.12,73.15,9.13ZM85.51,36.28H60.72v9.45H85.51Zm41,0H94.79v9.45h31.77Zm-87.35,0H31.84v9.45h7.37Z"/><polygon points="7.52 231.45 7.27 231.45 7.27 231.2 7.27 208.13 0 208.13 0 237.53 19.47 237.53 19.47 231.45 7.52 231.45"/><path d="M44.42,208.13v15.49c0,3.34,0,8.38-5.51,8.38-5.09,0-5.52-4.14-5.52-8.38V208.13H26.11V224.7c0,4,.23,7.61,3.06,10.37,2.1,2.07,5.65,3.26,9.73,3.26s7.63-1.19,9.74-3.26c2.83-2.75,3.06-6.32,3.06-10.37V208.13Z"/><path d="M70.06,219.78l-2-.6c-1.35-.43-3.62-1.16-3.62-3.09s2.14-2.74,3.58-2.74a8.3,8.3,0,0,1,5.06,1.85l2.85-5.55a20.19,20.19,0,0,0-9-2.32c-6,0-10.06,3.93-10.06,9.78,0,5.56,3,6.81,7.91,8.21l.23.06c1.75.49,4.67,1.31,4.67,3.58s-2.08,3.26-4,3.26c-2.25,0-4.49-1-6.83-3l-3.08,5.8a18.24,18.24,0,0,0,10.18,3.25,12.84,12.84,0,0,0,8.33-2.76c2-1.7,3-4.34,3-7.86C77.26,223.7,75,221.25,70.06,219.78Z"/><rect x="81.59" y="218.33" width="7.28" height="19.21"/><polygon points="116.61 208.13 101.93 226.98 101.93 208.13 94.65 208.13 94.65 237.53 102.05 237.53 116.73 218.59 116.73 237.53 124.02 237.53 124.02 208.13 116.61 208.13"/><polygon points="129.73 208.13 129.73 237.53 146.24 237.53 146.24 231.45 137.25 231.45 137.01 231.45 137.01 231.2 137.01 226.04 137.01 225.8 137.25 225.8 145.77 225.8 145.77 219.71 137.25 219.71 137.01 219.71 137.01 219.47 137.01 214.47 137.01 214.22 137.25 214.22 146.24 214.22 146.24 208.13 129.73 208.13"/><rect x="13.93" y="208.12" width="5.49" height="11.33"/><path d="M89.06,211.19a3.88,3.88,0,1,1-3.88-3.88A3.89,3.89,0,0,1,89.06,211.19Z"/></g></g></svg>